# xmcd
#
# Track frame offsets: 
#        150
#        21778
#        38831
#        63688
#        82474
#        96789
#        112596
#        136653
#        157092
#        172262
#        195447
#        209393
#        232816
#        249650
#        261349
#        274700
#        290171
#
# Disc length: 3986 seconds
#
# Revision: 1
# Processed by: cddbd v1.5.2PL0 Copyright (c) Steve Scherf et al.
# Submitted via: ExactAudioCopyFreeDBPlugin 1.0
#
DISCID=f90f9011
DTITLE=Donny Hathaway - Someday We'll All Be Free
DYEAR=2010
DGENRE=Soul
TTITLE0=Take a Love Song
TTITLE1=Put Your Hand in the Hand
TTITLE2=I Love The Lord, He Heard My Cry (Parts I and II)
TTITLE3=Someday We'll All Be Free
TTITLE4=Flying Easy
TTITLE5=Valdez in the Country
TTITLE6=I Love You More Than You'll Ever Know
TTITLE7=Come Little Children
TTITLE8=Love, Love, Love
TTITLE9=The Slums
TTITLE10=Magdelena
TTITLE11=I Know It's You
TTITLE12=Jealous Guy (previously unreleased studio version)
TTITLE13=No Other One But You (previously unreleased 1974 demo)
TTITLE14=The Essence Of Destiny (previously unreleased 1974 demo)
TTITLE15=Going Down (previously unreleased 1974 demo)
TTITLE16=Make It On Your Own (previously unreleased 1975 demo)
EXTD=
EXTT0=
EXTT1=
EXTT2=
EXTT3=
EXTT4=
EXTT5=
EXTT6=
EXTT7=
EXTT8=
EXTT9=
EXTT10=
EXTT11=
EXTT12=
EXTT13=
EXTT14=
EXTT15=
EXTT16=
PLAYORDER=
